<?xml version="1.0" encoding="UTF-8" standalone="no"?><!-- Generator: Gravit.io --><svg xmlns="http://www.w3.org/2000/svg" xmlns:xlink="http://www.w3.org/1999/xlink" style="isolation:isolate" viewBox="383.993 170.691 512.013 512.002" width="512.013pt" height="512.002pt"><path d=" M 881.944 244.863 L 821.834 184.753 C 803.084 166.003 772.674 166.003 753.924 184.753 L 697.374 241.303 L 825.394 369.323 L 881.944 312.773 C 900.694 294.023 900.694 263.623 881.944 244.863 L 881.944 244.863 Z  M 635.144 224.333 C 619.524 208.713 594.204 208.713 578.584 224.333 L 459.804 343.123 C 453.554 349.373 453.554 359.503 459.804 365.743 L 482.434 388.373 C 488.684 394.623 498.814 394.623 505.064 388.373 L 606.884 286.553 L 629.514 309.173 L 477.954 460.723 C 425.458 513.22 392.385 582.017 384.174 655.803 L 384.144 656.033 C 382.444 671.313 395.354 684.233 410.634 682.543 C 484.515 674.385 553.413 641.301 605.974 588.743 L 802.764 391.953 L 719.994 309.183 L 635.144 224.333 L 635.144 224.333 Z " fill="rgb(255,255,255)"/></svg>