<?xml version="1.0" encoding="UTF-8" standalone="no"?><!-- Generator: Gravit.io --><svg xmlns="http://www.w3.org/2000/svg" xmlns:xlink="http://www.w3.org/1999/xlink" style="isolation:isolate" viewBox="791 113 28 28" width="28pt" height="28pt"><path d=" M 795.993 130.064 L 797.86 133.284 C 797.984 133.487 798.218 133.564 798.436 133.487 L 800.753 132.553 C 801.236 132.927 801.749 133.238 802.324 133.471 L 802.667 135.944 C 802.713 136.162 802.9 136.333 803.133 136.333 L 806.867 136.333 C 807.1 136.333 807.287 136.162 807.333 135.929 L 807.676 133.456 C 808.236 133.222 808.764 132.911 809.247 132.538 L 811.564 133.471 C 811.782 133.549 812.016 133.471 812.14 133.269 L 814.007 130.049 C 814.131 129.847 814.069 129.598 813.898 129.442 L 811.922 127.902 C 811.969 127.607 811.984 127.296 811.984 127 C 811.984 126.689 811.953 126.393 811.922 126.082 L 813.898 124.542 C 814.069 124.402 814.131 124.138 814.007 123.936 L 812.14 120.716 C 812.022 120.518 811.78 120.433 811.564 120.513 L 809.247 121.447 C 808.764 121.073 808.251 120.762 807.676 120.529 L 807.333 118.056 C 807.289 117.832 807.095 117.67 806.867 117.667 L 803.133 117.667 C 802.901 117.671 802.704 117.841 802.667 118.071 L 802.324 120.544 C 801.764 120.778 801.22 121.073 800.753 121.447 L 798.436 120.513 C 798.218 120.436 797.984 120.513 797.86 120.716 L 795.993 123.936 C 795.869 124.138 795.931 124.387 796.102 124.542 L 798.078 126.082 C 798.031 126.393 798 126.689 798 127 C 798 127.311 798.031 127.607 798.062 127.918 L 796.087 129.458 C 795.916 129.613 795.869 129.862 795.993 130.064 Z  M 805 124.34 C 806.462 124.34 807.66 125.538 807.66 127 C 807.66 128.462 806.462 129.66 805 129.66 C 803.538 129.66 802.34 128.462 802.34 127 C 802.34 125.538 803.538 124.34 805 124.34 Z  M 815.889 113 L 794.111 113 C 792.393 113 791 114.393 791 116.111 L 791 137.889 C 791 139.607 792.393 141 794.111 141 L 815.889 141 C 817.607 141 819 139.607 819 137.889 L 819 116.111 C 819 114.393 817.607 113 815.889 113 Z  M 815.889 137.889 L 794.111 137.889 L 794.111 116.111 L 815.889 116.111 L 815.889 137.889 Z " fill="rgb(255,255,255)"/></svg>